<mxfile host="app.diagrams.net" modified="2024-05-06T08:27:06.089Z" agent="Mozilla/5.0 (Windows NT 10.0; Win64; x64; rv:125.0) Gecko/20100101 Firefox/125.0" version="24.3.1" etag="yqkbSdBm5CL2D7HffVkx" type="github">
  <diagram name="Page-1" id="hXjawSkylMuP5geo60T3">
    <mxGraphModel>
      <root>
        <mxCell id="0" />
        <mxCell id="1" parent="0" />
      </root>
    </mxGraphModel>
  </diagram>
</mxfile>
